<?xml version="1.0" encoding="UTF-8"?>
<!DOCTYPE svg PUBLIC "-//W3C//DTD SVG 1.1//EN" "http://www.w3.org/Graphics/SVG/1.1/DTD/svg11.dtd">
<svg xmlns="http://www.w3.org/2000/svg" version="1.1" width="238px" height="70px" style="shape-rendering:geometricPrecision; text-rendering:geometricPrecision; image-rendering:optimizeQuality; fill-rule:evenodd; clip-rule:evenodd" xmlns:xlink="http://www.w3.org/1999/xlink">
<g><path style="opacity:1" fill="#fdfdfc" d="M -0.5,-0.5 C 78.8333,-0.5 158.167,-0.5 237.5,-0.5C 237.5,22.8333 237.5,46.1667 237.5,69.5C 158.167,69.5 78.8333,69.5 -0.5,69.5C -0.5,46.1667 -0.5,22.8333 -0.5,-0.5 Z"/></g>
<g><path style="opacity:1" fill="#373737" d="M 22.5,9.5 C 32.1667,9.5 41.8333,9.5 51.5,9.5C 49.4353,11.8981 49.102,14.5647 50.5,17.5C 52.756,16.5791 53.756,14.9124 53.5,12.5C 56.5719,12.1826 59.5719,12.5159 62.5,13.5C 62.1373,14.1835 61.8039,14.8501 61.5,15.5C 60.8826,15.6107 60.3826,15.944 60,16.5C 59.3333,23.8333 59.3333,31.1667 60,38.5C 61.6036,39.0677 62.2703,40.0677 62,41.5C 58.6667,44.1667 55.3333,46.8333 52,49.5C 53.5244,39.6981 53.8578,29.6981 53,19.5C 48.7028,22.724 44.5362,26.0574 40.5,29.5C 43.1631,31.9923 45.9964,34.3256 49,36.5C 49.8289,41.533 49.6623,46.533 48.5,51.5C 44.7941,54.3763 40.9608,57.043 37,59.5C 33.0104,56.8485 29.0104,54.1818 25,51.5C 24.8322,41.4834 24.3322,31.4834 23.5,21.5C 22.5224,21.0233 21.6891,20.3567 21,19.5C 20.1422,29.6981 20.4756,39.6981 22,49.5C 18.6667,46.8333 15.3333,44.1667 12,41.5C 11.7297,40.0677 12.3964,39.0677 14,38.5C 14.6667,31.1667 14.6667,23.8333 14,16.5C 13.0053,15.9341 12.172,15.2674 11.5,14.5C 13.9878,12.6122 16.9878,11.9455 20.5,12.5C 20.244,14.9124 21.244,16.5791 23.5,17.5C 23.8333,16.5 24.1667,15.5 24.5,14.5C 24.0135,12.6958 23.3468,11.0291 22.5,9.5 Z"/></g>
<g><path style="opacity:1" fill="#c7c7c7" d="M 22.5,9.5 C 23.3468,11.0291 24.0135,12.6958 24.5,14.5C 24.1667,15.5 23.8333,16.5 23.5,17.5C 21.244,16.5791 20.244,14.9124 20.5,12.5C 16.9878,11.9455 13.9878,12.6122 11.5,14.5C 10.596,13.791 10.2627,12.791 10.5,11.5C 14.8274,11.9843 18.8274,11.3177 22.5,9.5 Z"/></g>
<g><path style="opacity:1" fill="#c6c6c6" d="M 51.5,9.5 C 55.1726,11.3177 59.1726,11.9843 63.5,11.5C 63.8432,13.4832 63.1765,14.8166 61.5,15.5C 61.8039,14.8501 62.1373,14.1835 62.5,13.5C 59.5719,12.5159 56.5719,12.1826 53.5,12.5C 53.756,14.9124 52.756,16.5791 50.5,17.5C 49.102,14.5647 49.4353,11.8981 51.5,9.5 Z"/></g>
<g><path style="opacity:1" fill="#7e7e7e" d="M 43.5,22.5 C 43.5,19.1667 43.5,15.8333 43.5,12.5C 39.1667,12.5 34.8333,12.5 30.5,12.5C 30.5,25.5 30.5,38.5 30.5,51.5C 29.5044,38.3438 29.1711,25.0105 29.5,11.5C 34.5,11.5 39.5,11.5 44.5,11.5C 44.815,15.3714 44.4816,19.0381 43.5,22.5 Z"/></g>
<g><path style="opacity:1" fill="#fcfcfc" d="M 43.5,22.5 C 41.5187,24.3031 39.352,25.9697 37,27.5C 35.414,26.624 33.914,25.624 32.5,24.5C 32.1667,25.1667 31.8333,25.8333 31.5,26.5C 35.1349,29.9618 38.9682,33.2951 43,36.5C 43.6667,41.5 43.6667,46.5 43,51.5C 41.1552,53.0874 39.1552,54.4208 37,55.5C 34.7381,54.2875 32.5715,52.9541 30.5,51.5C 30.5,38.5 30.5,25.5 30.5,12.5C 34.8333,12.5 39.1667,12.5 43.5,12.5C 43.5,15.8333 43.5,19.1667 43.5,22.5 Z"/></g>
<g><path style="opacity:1" fill="#feb286" d="M 123.5,21.5 C 129.401,20.1943 135.401,20.1943 141.5,21.5C 135.749,21.6145 129.749,21.6145 123.5,21.5 Z"/></g>
<g><path style="opacity:1" fill="#fe823a" d="M 173.5,35.5 C 173.5,36.5 173.5,37.5 173.5,38.5C 177.575,39.341 180.575,38.0076 182.5,34.5C 182.833,34.5 183.167,34.5 183.5,34.5C 183.649,35.552 183.483,36.552 183,37.5C 181.373,38.5323 180.207,39.8656 179.5,41.5C 172.391,43.788 168.724,40.788 168.5,32.5C 167.947,37.3109 167.114,41.9776 166,46.5C 164.156,43.4674 163.156,40.1341 163,36.5C 162.275,34.842 161.108,34.342 159.5,35C 159.833,35.3333 160.167,35.6667 160.5,36C 158.899,36.2734 157.399,36.7734 156,37.5C 155.153,39.8543 154.32,42.1877 153.5,44.5C 151.808,42.7952 150.475,40.7952 149.5,38.5C 150.497,38.5299 151.164,38.0299 151.5,37C 153.645,31.879 155.645,26.7123 157.5,21.5C 159.743,20.5258 162.076,20.1924 164.5,20.5C 165.167,24.1667 165.833,27.8333 166.5,31.5C 167.675,31.719 168.675,31.3857 169.5,30.5C 171.307,26.8595 173.974,24.0261 177.5,22C 180.449,21.1528 182.782,21.9861 184.5,24.5C 177.763,25.2366 174.096,28.9033 173.5,35.5 Z"/></g>
<g><path style="opacity:1" fill="#fe833b" d="M 122.5,23.5 C 122.5,23.8333 122.5,24.1667 122.5,24.5C 122.065,26.7033 122.065,28.7033 122.5,30.5C 121.521,32.1454 120.188,33.4787 118.5,34.5C 120.666,37.8264 122.999,40.993 125.5,44C 124.851,46.9772 123.517,47.3106 121.5,45C 118.386,41.9402 115.886,38.4402 114,34.5C 112.625,36.9368 112.125,39.6035 112.5,42.5C 109.512,42.8453 108.179,41.512 108.5,38.5C 109.838,34.1542 111.171,29.8209 112.5,25.5C 111.167,25.5 109.833,25.5 108.5,25.5C 107.993,30.5474 107.16,35.5474 106,40.5C 105.092,42.4386 103.592,43.4386 101.5,43.5C 101.467,40.164 102.134,36.9973 103.5,34C 101.19,33.5034 98.8568,33.3367 96.5,33.5C 96.7525,36.3198 96.2525,38.9865 95,41.5C 94.3333,40.8333 93.6667,40.1667 93,39.5C 92.4877,33.7186 93.1544,28.0519 95,22.5C 95.8928,21.2888 96.7261,21.2888 97.5,22.5C 98.3742,24.7466 98.7076,27.0799 98.5,29.5C 100.5,29.5 102.5,29.5 104.5,29.5C 104.539,26.6786 105.205,24.0119 106.5,21.5C 109.622,22.5173 112.789,22.5173 116,21.5C 118.41,21.4824 120.577,22.1491 122.5,23.5 Z"/></g>
<g><path style="opacity:1" fill="#fe7b2e" d="M 123.5,21.5 C 129.749,21.6145 135.749,21.6145 141.5,21.5C 143.857,21.3367 146.19,21.5034 148.5,22C 149.381,22.7083 150.047,23.5416 150.5,24.5C 149.798,25.1157 148.798,25.1157 147.5,24.5C 146.167,24.5 144.833,24.5 143.5,24.5C 142.769,26.5988 142.769,28.5988 143.5,30.5C 144.622,29.3698 145.956,28.7031 147.5,28.5C 147.932,29.7095 148.599,30.7095 149.5,31.5C 148.77,32.7124 147.77,33.7124 146.5,34.5C 147.524,35.8518 148.524,37.1851 149.5,38.5C 150.475,40.7952 151.808,42.7952 153.5,44.5C 152.749,45.5735 151.749,45.7401 150.5,45C 146.908,42.079 144.075,38.579 142,34.5C 141.759,37.2889 141.092,39.9556 140,42.5C 137.148,38.4437 136.981,34.1104 139.5,29.5C 141.016,26.9196 140.349,24.9196 137.5,23.5C 136.167,23.5 134.833,23.5 133.5,23.5C 132.574,28.4632 131.908,33.4632 131.5,38.5C 130.015,40.2488 129.015,42.2488 128.5,44.5C 127.833,44.5 127.5,44.1667 127.5,43.5C 128.756,41.059 128.756,38.7257 127.5,36.5C 128.265,33.9039 128.599,31.2372 128.5,28.5C 129.434,27.4324 129.768,26.099 129.5,24.5C 127.167,24.5 124.833,24.5 122.5,24.5C 122.5,24.1667 122.5,23.8333 122.5,23.5C 122.328,22.5084 122.662,21.8417 123.5,21.5 Z"/></g>
<g><path style="opacity:1" fill="#fe7f35" d="M 185.5,40.5 C 184.725,38.3881 184.725,36.3881 185.5,34.5C 185.344,30.4183 185.844,26.4183 187,22.5C 187.893,21.2888 188.726,21.2888 189.5,22.5C 190.246,23.7362 190.579,25.0695 190.5,26.5C 193.773,24.9387 197.106,23.2721 200.5,21.5C 201.308,21.8076 201.975,22.3076 202.5,23C 199.341,25.232 196.674,27.8987 194.5,31C 195.611,34.0551 197.111,36.8884 199,39.5C 199.49,40.7932 199.657,42.1266 199.5,43.5C 198.178,43.67 197.011,43.3366 196,42.5C 194.431,39.0288 192.597,35.6955 190.5,32.5C 189.205,35.0119 188.539,37.6786 188.5,40.5C 187.5,40.5 186.5,40.5 185.5,40.5 Z"/></g>
<g><path style="opacity:1" fill="#f7ede8" d="M 115.5,24.5 C 117.288,24.2148 118.955,24.5481 120.5,25.5C 115.632,31.9117 113.966,31.5784 115.5,24.5 Z"/></g>
<g><path style="opacity:1" fill="#f6c3a6" d="M 122.5,24.5 C 124.833,24.5 127.167,24.5 129.5,24.5C 129.768,26.099 129.434,27.4324 128.5,28.5C 128.5,27.5 128.5,26.5 128.5,25.5C 126.833,25.5 125.167,25.5 123.5,25.5C 123.784,27.4147 123.451,29.0813 122.5,30.5C 122.065,28.7033 122.065,26.7033 122.5,24.5 Z"/></g>
<g><path style="opacity:1" fill="#fae8df" d="M 147.5,24.5 C 148.833,25.8333 148.833,27.1667 147.5,28.5C 145.956,28.7031 144.622,29.3698 143.5,30.5C 142.769,28.5988 142.769,26.5988 143.5,24.5C 144.833,24.5 146.167,24.5 147.5,24.5 Z"/></g>
<g><path style="opacity:1" fill="#fb985e" d="M 147.5,24.5 C 148.798,25.1157 149.798,25.1157 150.5,24.5C 151.147,25.2739 151.48,26.2739 151.5,27.5C 151.66,29.3545 150.993,30.6879 149.5,31.5C 148.599,30.7095 147.932,29.7095 147.5,28.5C 148.833,27.1667 148.833,25.8333 147.5,24.5 Z"/></g>
<g><path style="opacity:1" fill="#f7af85" d="M 137.5,23.5 C 140.349,24.9196 141.016,26.9196 139.5,29.5C 139.296,27.3146 138.63,25.3146 137.5,23.5 Z"/></g>
<g><path style="opacity:1" fill="#f5e8e1" d="M 160.5,26.5 C 161.451,27.9187 161.784,29.5853 161.5,31.5C 160.448,31.6495 159.448,31.4828 158.5,31C 159.267,29.5295 159.933,28.0295 160.5,26.5 Z"/></g>
<g><path style="opacity:1" fill="#fbb992" d="M 182.5,34.5 C 180.575,38.0076 177.575,39.341 173.5,38.5C 173.5,37.5 173.5,36.5 173.5,35.5C 176.864,38.2889 179.698,37.6222 182,33.5C 182.399,33.7284 182.565,34.0618 182.5,34.5 Z"/></g>
<g><path style="opacity:1" fill="#f8ba96" d="M 183.5,34.5 C 184.167,34.5 184.833,34.5 185.5,34.5C 184.725,36.3881 184.725,38.3881 185.5,40.5C 183.402,39.5155 181.402,39.8489 179.5,41.5C 180.207,39.8656 181.373,38.5323 183,37.5C 183.483,36.552 183.649,35.552 183.5,34.5 Z"/></g>
<g><path style="opacity:1" fill="#fba776" d="M 127.5,36.5 C 128.756,38.7257 128.756,41.059 127.5,43.5C 126.583,41.3382 126.583,39.0048 127.5,36.5 Z"/></g>
<g><path style="opacity:1" fill="#f9b892" d="M 131.5,38.5 C 131.5,40.8333 131.5,43.1667 131.5,45.5C 130.209,45.7373 129.209,45.404 128.5,44.5C 129.015,42.2488 130.015,40.2488 131.5,38.5 Z"/></g>
</svg>
